<svg width="22" height="22" viewBox="0 0 50 50" fill="none" xmlns="http://www.w3.org/2000/svg">
<g clip-path="url(#clip0_59_2)">
<path d="M25 43.75C29.144 43.75 33.1183 42.1038 36.0485 39.1735C38.9788 36.2433 40.625 32.269 40.625 28.125C40.625 23.981 38.9788 20.0067 36.0485 17.0765C33.1183 14.1462 29.144 12.5 25 12.5C20.856 12.5 16.8817 14.1462 13.9515 17.0765C11.0212 20.0067 9.375 23.981 9.375 28.125C9.375 32.269 11.0212 36.2433 13.9515 39.1735C16.8817 42.1038 20.856 43.75 25 43.75ZM25 46.875C20.0272 46.875 15.2581 44.8996 11.7417 41.3833C8.22544 37.8669 6.25 33.0978 6.25 28.125C6.25 23.1522 8.22544 18.3831 11.7417 14.8667C15.2581 11.3504 20.0272 9.375 25 9.375C29.9728 9.375 34.7419 11.3504 38.2583 14.8667C41.7746 18.3831 43.75 23.1522 43.75 28.125C43.75 33.0978 41.7746 37.8669 38.2583 41.3833C34.7419 44.8996 29.9728 46.875 25 46.875Z" fill="#F8F8F8"/>
<path d="M25 15.625C25.4144 15.625 25.8118 15.7896 26.1048 16.0826C26.3979 16.3757 26.5625 16.7731 26.5625 17.1875L26.5375 28.125C26.5375 28.5394 26.3729 28.9368 26.0798 29.2299C25.7868 29.5229 25.3894 29.6875 24.975 29.6875C24.5606 29.6875 24.1631 29.5229 23.8701 29.2299C23.5771 28.9368 23.4125 28.5394 23.4125 28.125L23.4375 17.1875C23.4375 16.7731 23.6021 16.3757 23.8951 16.0826C24.1881 15.7896 24.5856 15.625 25 15.625Z" fill="#F8F8F8"/>
<path d="M21.875 28.125C21.875 28.9538 22.2042 29.7487 22.7903 30.3347C23.3763 30.9208 24.1712 31.25 25 31.25C25.8288 31.25 26.6237 30.9208 27.2097 30.3347C27.7958 29.7487 28.125 28.9538 28.125 28.125C28.125 27.2962 27.7958 26.5013 27.2097 25.9153C26.6237 25.3292 25.8288 25 25 25C24.1712 25 23.3763 25.3292 22.7903 25.9153C22.2042 26.5013 21.875 27.2962 21.875 28.125ZM26.5625 6.25V12.5H23.4375V6.25H18.75C18.3356 6.25 17.9382 6.08538 17.6451 5.79235C17.3521 5.49933 17.1875 5.1019 17.1875 4.6875C17.1875 4.2731 17.3521 3.87567 17.6451 3.58265C17.9382 3.28962 18.3356 3.125 18.75 3.125H31.25C31.6644 3.125 32.0618 3.28962 32.3549 3.58265C32.6479 3.87567 32.8125 4.2731 32.8125 4.6875C32.8125 5.1019 32.6479 5.49933 32.3549 5.79235C32.0618 6.08538 31.6644 6.25 31.25 6.25H26.5625Z" fill="#F8F8F8"/>
</g>
<defs>
<clipPath id="clip0_59_2">
<rect width="50" height="50" fill="white"/>
</clipPath>
</defs>
</svg>
